<?xml version="1.0" encoding="UTF-8"?>
<svg id="Layer_1" data-name="Layer 1" xmlns="http://www.w3.org/2000/svg" viewBox="0 0 1500 592.22">
  <defs>
    <style>
      .cls-1 {
        fill: #fff;
      }

      .cls-2 {
        fill: none;
        stroke: #fff;
        stroke-linecap: round;
        stroke-miterlimit: 10;
        stroke-width: 13px;
      }
    </style>
  </defs>
  <rect class="cls-2" x="150.05" y="73.08" width="1162.71" height="406.66"/>
  <g>
    <path class="cls-1" d="M219.79,335.06h196v-40.89H251.37c-4.51,0-8.7-.8-12.55-2.4-3.85-1.59-7.19-3.81-10.01-6.63-2.82-2.82-5.03-6.11-6.63-9.87-1.6-3.76-2.4-7.8-2.4-12.13v-53.86c0-4.51,.8-8.69,2.4-12.55,1.59-3.85,3.81-7.19,6.63-10.01,2.82-2.82,6.11-5.03,9.87-6.63,3.76-1.59,7.8-2.4,12.13-2.4h184.44v40.05h-174v36.38h164.41c4.51,0,8.69,.85,12.55,2.54,3.85,1.69,7.19,3.95,10.01,6.77,2.82,2.82,5.03,6.11,6.63,9.87,1.6,3.76,2.4,7.71,2.4,11.84v58.38c0,4.51-.85,8.7-2.54,12.55-1.69,3.86-3.95,7.19-6.77,10.01-2.82,2.82-6.11,5.03-9.87,6.63-3.76,1.6-7.71,2.4-11.85,2.4H219.79v-40.05Z"/>
    <path class="cls-1" d="M484.36,209.29c0-4.51,.8-8.69,2.4-12.55,1.6-3.85,3.81-7.19,6.63-10.01,2.82-2.82,6.11-5.03,9.87-6.63,3.76-1.59,7.8-2.4,12.13-2.4h174.28c4.51,0,8.74,.85,12.69,2.54,3.95,1.69,7.37,3.95,10.29,6.77,2.91,2.82,5.22,6.11,6.91,9.87,1.69,3.76,2.54,7.71,2.54,11.84v134.8c0,4.7-.85,8.98-2.54,12.83-1.69,3.86-3.95,7.19-6.77,10.01-2.82,2.82-6.11,4.98-9.87,6.49-3.76,1.51-7.71,2.26-11.84,2.26h-174.28c-4.51,0-8.74-.85-12.69-2.54-3.95-1.69-7.38-3.95-10.29-6.77-2.92-2.82-5.22-6.11-6.91-9.87-1.69-3.76-2.54-7.71-2.54-11.84V209.29Zm196.28,125.78v-117.32h-154.82v117.32h154.82Z"/>
    <path class="cls-1" d="M749.21,209.29c0-4.51,.8-8.69,2.4-12.55,1.59-3.85,3.81-7.19,6.63-10.01,2.82-2.82,6.11-5.03,9.87-6.63,3.76-1.59,7.8-2.4,12.13-2.4h166.39c4.51,0,8.69,.85,12.55,2.54,3.85,1.69,7.19,3.95,10.01,6.77,2.82,2.82,5.03,6.11,6.63,9.87,1.6,3.76,2.4,7.71,2.4,11.84v62.61c0,4.51-.85,8.7-2.54,12.55-1.69,3.86-3.95,7.15-6.77,9.87-2.82,2.73-6.06,4.89-9.73,6.49-3.67,1.6-7.57,2.4-11.7,2.4h-25.38l56.68,72.48h-50.2l-58.1-72.48h-56.97v-40.05h122.96v-44.84h-145.8v157.36h-41.45V209.29Z"/>
    <path class="cls-1" d="M1103.89,217.83h-98v-39.99h237.13v39.99h-97.72v157.15h-41.4V217.83Z"/>
  </g>
  <polygon class="cls-1" points="1349.95 519.14 187.25 519.14 187.25 480.65 1313.3 482.62 1313.86 112.48 1349.95 112.48 1349.95 519.14"/>
</svg>